<?xml version="1.0" encoding="UTF-8"?>
<svg id="uuid-0d6871fe-2a10-4178-a2eb-07982e90d1ef" data-name="Layer 1" xmlns="http://www.w3.org/2000/svg" viewBox="0 0 175.85 175.85">
  <defs>
    <style>
      .uuid-278b3e0a-7c7d-4106-995f-ef7041450044 {
        fill: #334cff;
      }
    </style>
  </defs>
  <path class="uuid-278b3e0a-7c7d-4106-995f-ef7041450044" d="M87.93,0C39.37,0,0,39.37,0,87.93c0,19.59,6.41,37.69,17.25,52.31,1.26-5.28,3.21-10.37,5.99-15.23,2.17-3.79,4.69-7.35,7.72-10.49,1.19-1.24,2.7-2.21,4.14-3.17,8.71-5.84,17.5-11.55,26.13-17.5,3.46-2.38,6.61-5.22,9.84-7.92.62-.51.96-1.36,1.4-2.08.42-.7.78-.69,1.22,0,.9,1.37,1.83,2.71,2.84,4.19,1.1-2.02,2.12-3.91,3.17-5.8.45-.82.78-2.03,1.46-2.31.68-.28,1.76.37,2.65.66,1.79.59,3.6,1.16,5.35,1.85.76.3,1.28.18,1.9-.27,1.02-.74,2.07-1.45,3.16-2.08,3.84-2.22,7.88-2.74,12-.92,2.44,1.08,4.82,2.32,7.1,3.71.94.57,1.57,1.67,2.27,2.58,1.45,1.89,2.85,3.81,4.28,5.72,1.21-2.57,2.41-5.1,3.57-7.64.14-.3.16-.67.14-1.01-.12-3.86-.29-7.72-.34-11.58-.01-.82-.19-1.39-.7-2.02-1.67-2.12-3.26-4.3-4.86-6.47-.2-.27-.31-.61-.45-.9-1.36-.39-2.83-.8-4.63-1.31,6.78,6.65,10.03,14.07,7.12,23.44-3.84-2.53-7.62-4.99-11.36-7.52-.72-.49-1.41-.62-2.25-.55-3.96.29-7.92.47-11.87.81-1.91.16-3.79.65-5.7.9-1.84.24-3.69.35-5.85.55.45-1.38.76-2.43,1.15-3.45.17-.44.14-.7-.18-1.08-1.29-1.56-2.52-3.18-3.87-4.89-.44.22-.98.49-1.53.76.68,1.95,1.34,3.78,1.96,5.63.15.45.18.95.2,1.43.05,1.1-.32,2.03-1.17,2.79-.67.61-1.31,1.28-1.86,2.01-.75.99-1.64,1.06-2.78.59-.21-2.41-.42-4.85-.63-7.28-.84-.23-1.6-.3-2.32.39-.22.21-.8.03-1.35.03,1.17-3.66,2.28-7.11,3.37-10.57.09-.28.11-.59.13-.89.16-2.14.07-4.32.53-6.39.4-1.84,1.43-3.53,2.12-5.31.15-.39.17-.92.04-1.32-1.17-3.5-2.47-6.96-3.56-10.49-.36-1.16-.21-2.48-.33-3.72-.04-.39-.13-.8-.29-1.15-.51-1.11-1.06-2.2-1.61-3.3-1.08-2.16-1.37-4.48-1.33-6.85,0-.26.28-.6.52-.73.16-.08.56.1.72.28,1.21,1.37,2.24,2.81,2.76,4.64.89,3.12,3.08,5.36,5.53,7.39,1.96,1.63,4.38,2.69,5.88,4.88.07.11.3.12.46.15,3.55.64,7.13.6,10.71.35.95-.07,1.91-.23,2.84-.1,1.9.26,3.15-.73,4.26-2,3.48-3.99,6.94-8.01,10.37-12.05.38-.45.52-1.11.78-1.67.94-2.03,1.88-4.06,2.83-6.17.16-.08.32-.08.56-.08.26.52.46,1.04.64,1.56.95,2.75-.14,5.82-2.7,7.4.08.29.06.74.26.91,1.22.98,1.42,2.46,1.86,3.78.82,2.51,1.57,5.05,2.19,7.61.26,1.05.22,2.22.12,3.31-.32,3.74-.21,7.43.65,11.09.05.23.14.45.25.65,1.93,3.57,3.99,7.08,5.75,10.73.67,1.4.71,3.12.95,4.7.65,4.23,1.37,8.45,1.81,12.7.18,1.73-.31,3.52-.47,5.29-.07.77-.09,1.54-.17,2.3-.4,3.58-1.89,6.84-3.04,10.2-1.52,4.45-3.56,8.66-6.08,12.64-.58.92-1.36,1.72-1.54,2.87-.05.33-.25.7-.5.91-1.23,1.05-1.47,2.55-2.01,3.95-.66,1.7-1.61,3.29-2.35,4.97-.51,1.13-.94,2.3-1.31,3.48-1.52,4.85-3.09,9.68-4.46,14.57-1.68,5.96-2.8,12.04-2.61,18.27.07,2.22.31,4.43.51,6.65,1.15.36,2.21.99,3.2,1.86.33.37.65.73.97,1.09,38.13-9.62,66.35-44.14,66.35-85.26C175.85,39.37,136.49,0,87.93,0Z"/>
  <path class="uuid-278b3e0a-7c7d-4106-995f-ef7041450044" d="M101.55,169.93c.32-.04.62-.06.92-.07-.38-.5-.66-1.11-.83-1.83-1.46-5.94-2.61-11.91-2.71-18.06-.07-4.41-.07-8.79,1.45-13,1.48-4.08,2.97-8.17,4.64-12.18,1.13-2.7,1.25-5.58,1.87-8.37.5-2.23,1-4.47,1.33-6.73.12-.84-.27-1.74-.38-2.62-.09-.72-.1-1.46-.15-2.3-.08-.07-.41-.29-.6-.6-1.12-1.86-2.21-3.74-3.32-5.6-.19-.31-.4-.61-.61-.93.44,2.84.98,5.6,1.26,8.38.59,5.78-.22,11.39-2.85,16.59-5.4,10.68-6.72,21.92-4.78,33.59.74,4.48,1.94,8.89,2.96,13.33.39,1.71,1.47,2.76,3.16,3.33.96.32,1.82.74,2.56,1.26.17-.03.34-.07.51-.11-1-1.7-2.49-3.01-4.44-4.07Z"/>
  <path class="uuid-278b3e0a-7c7d-4106-995f-ef7041450044" d="M80.24,154.24c-1.84-4.96-3.99-9.8-5.04-15.03-.62-3.11-.95-6.24-.82-9.42.05-1.22,0-2.46-.08-3.68-.02-.28-.28-.55-.42-.82-.19.24-.47.45-.56.72-.76,2.21-1.48,4.42-2.3,6.9-1.18-.98-2.37-1.76-3.29-2.78-1.76-1.96-5.67-3.33-8.03-2.51.36.25.66.46.96.66,4.91,3.22,9.07,7.15,11.23,12.75,3.5,9.11,2.19,19.94-6.85,27.97-1.1.98-2.25,1.9-3.43,2.85.73.23,1.47.45,2.21.66,2.02-.1,4.01-.2,6.01-.23,1.82-.03,3.65.07,5.46.29,2.31.28,4.22,1.32,5.67,3.01,2.23.17,4.49.27,6.76.27-.57-1.88-1.13-3.76-1.77-5.62-1.84-5.35-3.75-10.68-5.72-15.99Z"/>
  <path class="uuid-278b3e0a-7c7d-4106-995f-ef7041450044" d="M93.5,75.26c0-.13,0-.26.01-.39-.96-.26-1.91-.57-2.89-.77-1.53-.32-2.91-.8-3.58-2.38-.08-.2-.2-.38-.32-.6-.83.88-1.59,1.69-2.39,2.56,1.65,1.48,3.5,2.18,5.7,2.16,0,0,.01,0,.02,0,.02,0,.04,0,.06,0,.23,0,.46,0,.7-.02-.2.01-.4.01-.59,0,.27,0,.55-.02.83-.05.82-.17,1.64-.34,2.46-.52Z"/>
</svg>