<?xml version="1.0" encoding="UTF-8"?>
<svg id="uuid-6dd0719c-d2eb-4c33-8312-0143a2b07e03" data-name="Layer 1" xmlns="http://www.w3.org/2000/svg" viewBox="0 0 847.64 175.85">
  <defs>
    <style>
      .uuid-0fbc9939-1d35-47a9-b314-c39a165928f3 {
        fill: #898989;
      }

      .uuid-725c69ee-4bb4-4d41-a32c-9a3d71cfb58f {
        fill: #334cff;
      }
    </style>
  </defs>
  <g>
    <path class="uuid-725c69ee-4bb4-4d41-a32c-9a3d71cfb58f" d="M86.27,0C38.62,0,0,39.37,0,87.93c0,19.59,6.29,37.69,16.92,52.31,1.24-5.28,3.15-10.37,5.87-15.23,2.13-3.79,4.6-7.35,7.58-10.49,1.17-1.24,2.65-2.21,4.06-3.17,8.54-5.84,17.17-11.55,25.64-17.5,3.39-2.38,6.48-5.22,9.65-7.92.6-.51.94-1.36,1.37-2.08.42-.7.76-.69,1.2,0,.88,1.37,1.8,2.71,2.79,4.19,1.08-2.02,2.08-3.91,3.11-5.8.44-.82.76-2.03,1.44-2.31.67-.28,1.73.37,2.6.66,1.76.59,3.53,1.16,5.25,1.85.75.3,1.25.18,1.86-.27,1-.74,2.03-1.45,3.1-2.08,3.77-2.22,7.73-2.74,11.77-.92,2.39,1.08,4.73,2.32,6.96,3.71.92.57,1.54,1.67,2.23,2.58,1.42,1.89,2.8,3.81,4.2,5.72,1.19-2.57,2.36-5.1,3.51-7.64.13-.3.15-.67.14-1.01-.11-3.86-.29-7.72-.34-11.58-.01-.82-.19-1.39-.68-2.02-1.64-2.12-3.2-4.3-4.77-6.47-.2-.27-.3-.61-.45-.9-1.34-.39-2.78-.8-4.55-1.31,6.66,6.65,9.84,14.07,6.99,23.44-3.76-2.53-7.47-4.99-11.15-7.52-.71-.49-1.38-.62-2.21-.55-3.88.29-7.77.47-11.65.81-1.87.16-3.72.65-5.59.9-1.8.24-3.62.35-5.74.55.44-1.38.75-2.43,1.13-3.45.16-.44.13-.7-.18-1.08-1.27-1.56-2.48-3.18-3.79-4.89-.43.22-.96.49-1.5.76.67,1.95,1.32,3.78,1.92,5.63.15.45.17.95.19,1.43.05,1.1-.32,2.03-1.15,2.79-.66.61-1.28,1.28-1.82,2.01-.74.99-1.6,1.06-2.73.59-.2-2.41-.41-4.85-.62-7.28-.82-.23-1.57-.3-2.28.39-.22.21-.79.03-1.33.03,1.15-3.66,2.23-7.11,3.31-10.57.09-.28.11-.59.13-.89.15-2.14.07-4.32.52-6.39.4-1.84,1.4-3.53,2.08-5.31.15-.39.17-.92.04-1.32-1.15-3.5-2.42-6.96-3.49-10.49-.35-1.16-.21-2.48-.32-3.72-.04-.39-.12-.8-.29-1.15-.5-1.11-1.04-2.2-1.58-3.3-1.06-2.16-1.35-4.48-1.31-6.85,0-.26.27-.6.51-.73.16-.08.55.1.71.28,1.18,1.37,2.19,2.81,2.71,4.64.88,3.12,3.03,5.36,5.42,7.39,1.92,1.63,4.3,2.69,5.77,4.88.07.11.3.12.45.15,3.48.64,6.99.6,10.51.35.93-.07,1.88-.23,2.78-.1,1.86.26,3.09-.73,4.18-2,3.42-3.99,6.81-8.01,10.18-12.05.38-.45.51-1.11.77-1.67.92-2.03,1.85-4.06,2.78-6.17.16-.08.32-.08.55-.08.26.52.45,1.04.62,1.56.93,2.75-.14,5.82-2.65,7.4.07.29.06.74.26.91,1.2.98,1.4,2.46,1.82,3.78.8,2.51,1.54,5.05,2.15,7.61.25,1.05.21,2.22.12,3.31-.31,3.74-.21,7.43.64,11.09.05.23.14.45.24.65,1.9,3.57,3.91,7.08,5.64,10.73.66,1.4.7,3.12.94,4.7.63,4.23,1.34,8.45,1.77,12.7.18,1.73-.3,3.52-.47,5.29-.07.77-.09,1.54-.17,2.3-.39,3.58-1.86,6.84-2.98,10.2-1.49,4.45-3.5,8.66-5.97,12.64-.57.92-1.33,1.72-1.51,2.87-.05.33-.24.7-.49.91-1.2,1.05-1.44,2.55-1.97,3.95-.65,1.7-1.58,3.29-2.31,4.97-.5,1.13-.92,2.3-1.29,3.48-1.49,4.85-3.03,9.68-4.38,14.57-1.64,5.96-2.75,12.04-2.56,18.27.07,2.22.3,4.43.5,6.65,1.13.36,2.16.99,3.14,1.86.32.37.63.73.95,1.09,37.41-9.62,65.1-44.14,65.1-85.26C172.53,39.37,133.91,0,86.27,0Z"/>
    <path class="uuid-725c69ee-4bb4-4d41-a32c-9a3d71cfb58f" d="M99.63,169.93c.31-.04.61-.06.91-.07-.37-.5-.64-1.11-.82-1.83-1.43-5.94-2.56-11.91-2.66-18.06-.07-4.41-.07-8.79,1.43-13,1.45-4.08,2.91-8.17,4.55-12.18,1.11-2.7,1.23-5.58,1.84-8.37.49-2.23.98-4.47,1.3-6.73.12-.84-.27-1.74-.37-2.62-.09-.72-.09-1.46-.14-2.3-.07-.07-.4-.29-.59-.6-1.1-1.86-2.17-3.74-3.26-5.6-.18-.31-.39-.61-.6-.93.43,2.84.96,5.6,1.24,8.38.58,5.78-.22,11.39-2.8,16.59-5.3,10.68-6.59,21.92-4.69,33.59.73,4.48,1.9,8.89,2.9,13.33.39,1.71,1.44,2.76,3.1,3.33.94.32,1.78.74,2.51,1.26.17-.03.33-.07.5-.11-.99-1.7-2.45-3.01-4.36-4.07Z"/>
    <path class="uuid-725c69ee-4bb4-4d41-a32c-9a3d71cfb58f" d="M78.73,154.24c-1.81-4.96-3.92-9.8-4.94-15.03-.61-3.11-.93-6.24-.8-9.42.05-1.22,0-2.46-.08-3.68-.02-.28-.27-.55-.42-.82-.19.24-.46.45-.55.72-.74,2.21-1.46,4.42-2.26,6.9-1.16-.98-2.33-1.76-3.23-2.78-1.73-1.96-5.56-3.33-7.87-2.51.36.25.65.46.94.66,4.82,3.22,8.9,7.15,11.01,12.75,3.43,9.11,2.15,19.94-6.72,27.97-1.08.98-2.21,1.9-3.36,2.85.72.23,1.44.45,2.17.66,1.98-.1,3.94-.2,5.9-.23,1.78-.03,3.58.07,5.35.29,2.26.28,4.14,1.32,5.57,3.01,2.19.17,4.4.27,6.63.27-.56-1.88-1.11-3.76-1.73-5.62-1.8-5.35-3.68-10.68-5.61-15.99Z"/>
    <path class="uuid-725c69ee-4bb4-4d41-a32c-9a3d71cfb58f" d="M91.73,75.26c0-.13,0-.26.01-.39-.94-.26-1.88-.57-2.83-.77-1.5-.32-2.86-.8-3.52-2.38-.08-.2-.2-.38-.31-.6-.81.88-1.56,1.69-2.35,2.56,1.62,1.48,3.43,2.18,5.59,2.16,0,0,.01,0,.02,0,.02,0,.04,0,.06,0,.23,0,.45,0,.69-.02-.2.01-.39.01-.58,0,.27,0,.54-.02.81-.05.81-.17,1.61-.34,2.42-.52Z"/>
  </g>
  <g>
    <path d="M209.78,36.14h21.26v83.62h44.23v17.28h-65.49V36.14Z"/>
    <path d="M293.98,36.14l23.67,43.48h.99l23.53-43.48h23.96l-37.42,64.95v35.96h-21.26v-35.96l-37.42-64.95h23.96Z"/>
    <path d="M462.82,137.05h-18.43l-45.08-64.11h-.85v64.11h-21.26V36.14h18.71l44.8,64.11h.99V36.14h21.12v100.91Z"/>
    <path d="M520.8,70.84h.71l21.12-34.7h24.1l-31.33,50.45,32.04,50.45h-24.67l-21.26-34.7h-.71l-21.26,34.7h-24.52l32.18-50.45-31.61-50.45h24.24l20.98,34.7Z"/>
  </g>
  <g>
    <path class="uuid-0fbc9939-1d35-47a9-b314-c39a165928f3" d="M604.68,137.15V56.88h26.04c22.92,0,36.69,15.08,36.69,40.02s-13.77,40.24-37.44,40.24h-25.29ZM629.32,126.5c17.65,0,26.36-10.64,26.36-29.6s-8.72-29.38-25.72-29.38h-13.45v58.98h12.8Z"/>
    <path class="uuid-0fbc9939-1d35-47a9-b314-c39a165928f3" d="M677.2,107.33c0-18.74,10.76-31.15,27.33-31.15s27.22,12.42,27.22,31.15-10.76,31.04-27.22,31.04-27.33-12.42-27.33-31.04ZM720.13,107.33c0-11.53-5.06-21.4-15.6-21.4s-15.82,9.87-15.82,21.4,5.06,21.17,15.82,21.17,15.6-9.64,15.6-21.17Z"/>
    <path class="uuid-0fbc9939-1d35-47a9-b314-c39a165928f3" d="M740.47,107.33c0-18.4,10.65-31.15,27.11-31.15,13.34,0,23.03,8.09,24.21,20.29h-11.19c-1.18-5.65-5.6-10.42-12.8-10.42-9.47,0-15.82,8.09-15.82,20.95s6.24,21.29,15.82,21.29c6.46,0,11.41-3.66,12.8-10.2h11.19c-1.29,11.64-10.22,20.29-23.99,20.29-17,0-27.33-12.97-27.33-31.04Z"/>
    <path class="uuid-0fbc9939-1d35-47a9-b314-c39a165928f3" d="M824.4,85.49c-6.56,0-11.3,3.55-11.19,8.09-.11,3.55,2.69,6.1,9.15,7.65l9.25,2.22c10.76,2.44,15.92,7.76,16.03,16.3-.11,10.86-8.93,18.62-23.89,18.62-13.99,0-22.38-6.43-23.78-17.63h11.73c.97,5.43,5.06,8.09,11.94,8.09,7.42,0,12.16-3.1,12.27-8.2-.11-3.88-2.91-6.43-9.04-7.87l-9.15-2c-10.54-2.44-16.03-8.2-16.03-16.52,0-10.75,9.04-18.07,22.6-18.07s21.09,6.87,22.27,17.18h-11.08c-1.08-4.77-4.73-7.87-11.08-7.87Z"/>
  </g>
</svg>